<?xml version="1.0" standalone="no"?>
<!DOCTYPE svg PUBLIC "-//W3C//DTD SVG 20010904//EN" "http://www.w3.org/TR/2001/REC-SVG-20010904/DTD/svg10.dtd">
<svg
  version="1.0"
  xmlns="http://www.w3.org/2000/svg"
  width="192.000000pt"
  height="192.000000pt"
  viewBox="0 0 192.000000 192.000000"
  preserveAspectRatio="xMidYMid meet"
>
  <g
    transform="translate(0.000000,192.000000) scale(0.100000,-0.100000)"
    fill="#000000"
    stroke="none"
  >
  <path d="M115 1901 c-48 -22 -79 -54 -100 -103 -13 -33 -15 -138 -15 -840 0
    -759 1 -805 19 -843 22 -48 54 -79 103 -100 33 -13 138 -15 840 -15 759 0 805
    1 843 19 48 22 79 54 100 103 13 33 15 138 15 838 0 700 -2 805 -15 838 -21
    49 -52 81 -100 103 -38 18 -83 19 -845 19 -762 0 -807 -1 -845 -19z m1205
    -650 c0 -517 -19 -668 -99 -785 -74 -107 -239 -158 -416 -127 -65 12 -176 59
    -190 81 -5 8 27 125 41 152 2 3 34 -9 72 -29 130 -67 286 -52 344 32 52 74 58
    136 58 598 l0 417 95 0 95 0 0 -339z" />
  </g>
</svg>
